<?xml version="1.0" encoding="utf-8"?>
<!-- Generator: Adobe Illustrator 16.0.4, SVG Export Plug-In . SVG Version: 6.00 Build 0)  -->
<!DOCTYPE svg PUBLIC "-//W3C//DTD SVG 1.1//EN" "http://www.w3.org/Graphics/SVG/1.1/DTD/svg11.dtd">
<svg version="1.1" id="Layer_1" xmlns="http://www.w3.org/2000/svg" xmlns:xlink="http://www.w3.org/1999/xlink" x="0px" y="0px"
	 width="107.387px" height="41px" viewBox="0 0 107.387 41" enable-background="new 0 0 107.387 41" xml:space="preserve">
<path fill="#FFFFFF" d="M99.406,16.921h-4.098v-2.789h4.098h2.812v8.162c0,3.029-1.781,4.491-4.415,4.491
	c-1.94,0-3.222-0.854-4.076-1.871l1.727-1.925c0.712,0.784,1.406,1.248,2.278,1.248c1.033,0,1.674-0.625,1.674-2.068V16.921z
	 M53.186,22.922c0,2.476-1.887,3.864-4.576,3.864c-1.888,0-3.793-0.659-5.289-1.994l1.621-1.94c1.122,0.926,2.297,1.514,3.721,1.514
	c1.122,0,1.799-0.445,1.799-1.176v-0.035c0-0.695-0.428-1.051-2.511-1.585c-2.511-0.641-4.131-1.335-4.131-3.811v-0.036
	c0-2.261,1.816-3.757,4.363-3.757c1.816,0,3.365,0.57,4.629,1.584l-1.424,2.065c-1.104-0.766-2.19-1.229-3.241-1.229
	c-1.051,0-1.603,0.481-1.603,1.086v0.035c0,0.819,0.534,1.086,2.688,1.639c2.529,0.659,3.953,1.566,3.953,3.739V22.922z
	 M64.84,16.666h-3.791v9.954h-2.741v-9.954h-3.791v-2.533H64.84V16.666z M79.242,20.376c0,3.546-2.802,6.452-6.657,6.452
	s-6.621-2.869-6.621-6.416v-0.036c0-3.547,2.802-6.452,6.657-6.452s6.621,2.869,6.621,6.416V20.376z M76.37,20.412v-0.035
	c0-2.134-1.571-3.913-3.785-3.913s-3.749,1.743-3.749,3.877v0.036c0,2.133,1.571,3.913,3.785,3.913S76.37,22.546,76.37,20.412z
	 M92.354,26.619h-3.207l-2.673-3.995h-2.156v3.995h-2.744V14.133h5.702c2.939,0,4.704,1.552,4.704,4.121v0.036
	c0,2.016-1.087,3.282-2.673,3.871L92.354,26.619z M89.19,18.447v-0.036c0-1.175-0.817-1.781-2.151-1.781H84.32v3.58h2.772
	C88.426,20.21,89.19,19.498,89.19,18.447z"/>
<path fill="#FFFFFF" d="M14.446,26.254c0.011,0,0.021,0,0.032,0c0.002,0,0.005,0,0.008,0h2.709c0,0.194,0.001,0.309,0.001,0.344
	c-0.006,2.762-0.006,5.523-0.001,8.285c0,0.195-0.061,0.307-0.238,0.392c-0.93,0.448-1.632,1.606-1.441,2.845
	c0.222,1.438,1.699,2.523,3.125,2.244c1.255-0.244,2.08-1.102,2.257-2.422c0.12-0.895-0.311-2.076-1.461-2.668
	c-0.156-0.079-0.242-0.166-0.242-0.358c0.006-2.683,0.006-5.365,0-8.048c0-0.086,0.014-0.147,0.042-0.192v-0.421h3.309
	c0.104,0,0.207-0.008,0.308-0.023c0.764-0.078,1.472-0.34,2.078-0.736l4.758,2.757l-0.019,0.015
	c0.127,0.072,0.254,0.145,0.381,0.217c0.236,0.134,0.328,0.281,0.321,0.559c-0.042,1.605,1.357,2.916,2.988,2.742
	c1.601-0.17,2.736-1.712,2.364-3.271c-0.445-1.869-2.468-2.711-4.103-1.701c-0.172,0.105-0.296,0.135-0.48,0.027
	c-1.383-0.809-2.769-1.611-4.161-2.404c-0.072-0.041-0.123-0.082-0.155-0.125l-0.483-0.28c0.401-0.669,0.632-1.45,0.632-2.282
	c0-1.654-0.904-3.089-2.246-3.874l0.017-0.01c0.023-0.018,0.05-0.035,0.08-0.052c0.588-0.337,1.177-0.675,1.765-1.013l3.908-2.256
	c0.216-0.125,0.432-0.25,0.648-0.376c0.169-0.098,0.285-0.1,0.451,0.012c0.593,0.398,1.258,0.524,1.955,0.402
	c1.357-0.238,2.341-1.467,2.22-2.918c-0.131-1.574-1.674-2.75-3.215-2.409c-1.353,0.3-2.202,1.357-2.187,2.748
	c0.002,0.237-0.063,0.372-0.275,0.493c-0.544,0.312-1.089,0.625-1.633,0.938l0,0l-4.981,2.887c-0.878-1.539-2.444-2.646-4.282-2.935
	c0-2.339,0.005-4.678-0.008-7.016c-0.002-0.351,0.08-0.554,0.409-0.743c1.178-0.677,1.626-2.136,1.087-3.379
	c-0.543-1.254-1.933-1.924-3.235-1.527c-1.186,0.361-1.847,1.199-1.963,2.419c-0.089,0.941,0.355,1.986,1.429,2.573
	c0.165,0.09,0.28,0.169,0.279,0.396c-0.002,0.688-0.004,1.377-0.005,2.065h0.04v5.221c-1.629,0.27-3.066,1.187-3.977,2.516
	c-0.233,0.051-0.46,0.117-0.682,0.197c-2.052-1.173-4.095-2.363-6.15-3.53c-0.309-0.175-0.457-0.362-0.406-0.718
	c0.021-0.142-0.023-0.293-0.046-0.439c-0.21-1.328-1.509-2.439-3.076-2.181c-1.537,0.253-2.513,1.645-2.259,3.135
	c0.323,1.902,2.493,2.865,4.13,1.825c0.185-0.117,0.312-0.126,0.502-0.016c0.583,0.34,1.167,0.679,1.751,1.017l0.022-0.038
	l3.646,2.108c-1,0.949-1.625,2.275-1.625,3.75c0,1.141,0.373,2.191,1.003,3.049l-4.247,2.451l-0.003-0.018
	c-0.206,0.117-0.412,0.234-0.619,0.353c-0.092,0.052-0.271,0.042-0.365-0.015c-0.44-0.267-0.91-0.443-1.423-0.457
	c-1.708-0.043-2.747,1.352-2.805,2.564c-0.067,1.421,1.007,2.876,2.744,2.863c1.523-0.012,2.683-1.234,2.668-2.76
	c-0.002-0.271,0.078-0.426,0.316-0.562c1.173-0.669,2.925-1.679,5.255-3.03C12.418,25.963,13.399,26.254,14.446,26.254z
	 M34.721,14.783c-0.198,0.119-0.267,0.24-0.267,0.466c0.007,3.504,0.006,7.009,0.001,10.513c0,0.21,0.053,0.336,0.246,0.447
	c1.244,0.721,1.874,2.047,1.65,3.441c-0.214,1.338-1.282,2.436-2.666,2.698c-0.802,0.153-1.579,0.031-2.282-0.4
	c-0.214-0.132-0.365-0.108-0.566,0.008c-3.011,1.745-6.025,3.485-9.042,5.219c-0.206,0.118-0.284,0.249-0.283,0.49
	c0.003,1.687-1.297,3.153-2.922,3.316c-1.73,0.175-3.26-0.913-3.634-2.593c-0.058-0.258-0.077-0.529-0.083-0.793
	c-0.004-0.18-0.054-0.289-0.213-0.381c-3.059-1.761-6.116-3.525-9.171-5.293c-0.166-0.097-0.295-0.098-0.462,0.004
	c-1.997,1.202-4.541,0.049-4.964-2.197c-0.267-1.418,0.31-2.745,1.58-3.492c0.2-0.119,0.291-0.238,0.291-0.483
	c-0.009-3.505-0.007-7.008-0.002-10.512c0-0.21-0.055-0.335-0.247-0.447c-1.274-0.741-1.874-2.027-1.629-3.472
	c0.243-1.435,1.352-2.488,2.795-2.694c0.774-0.11,1.52,0.031,2.189,0.459c0.156,0.1,0.271,0.096,0.43,0.005
	c3.046-1.764,6.095-3.522,9.146-5.277c0.185-0.106,0.256-0.228,0.257-0.445c0.005-1.93,1.529-3.408,3.46-3.369
	c1.505,0.03,2.914,1.273,3.127,2.76c0.019,0.137,0.05,0.221,0.05,0.409c0,0.412,0.152,0.586,0.472,0.77
	c2.961,1.695,5.913,3.403,8.863,5.114c0.203,0.118,0.35,0.123,0.561,0.003c2.004-1.144,4.434-0.048,4.922,2.215
	c0.046,0.21,0.042,0.432,0.057,0.625C36.354,13.181,35.797,14.138,34.721,14.783z M32.317,29.099c0-0.446,0.32-0.771,0.759-0.77
	c0.422,0.003,0.783,0.351,0.787,0.765c0.005,0.396-0.38,0.781-0.78,0.782C32.654,29.876,32.317,29.535,32.317,29.099z M17.422,3.32
	c0.001-0.432,0.338-0.766,0.773-0.766c0.436,0,0.77,0.333,0.772,0.766c0.001,0.416-0.362,0.784-0.771,0.779
	C17.782,4.095,17.42,3.731,17.422,3.32z M4.071,29.102c-0.001,0.436-0.341,0.777-0.768,0.774c-0.403-0.004-0.775-0.38-0.777-0.786
	c-0.002-0.405,0.367-0.761,0.79-0.761C3.754,28.33,4.073,28.655,4.071,29.102z M18.204,36.928c0.435,0.002,0.765,0.333,0.763,0.764
	c-0.003,0.43-0.338,0.752-0.779,0.75c-0.437-0.002-0.771-0.336-0.766-0.766C17.427,37.249,17.767,36.924,18.204,36.928z
	 M3.325,12.668c-0.441,0.004-0.785-0.317-0.798-0.744c-0.013-0.415,0.335-0.764,0.77-0.77c0.454-0.007,0.769,0.296,0.775,0.743
	C4.078,12.347,3.771,12.664,3.325,12.668z M33.067,12.669c-0.446-0.003-0.754-0.321-0.75-0.77c0.004-0.446,0.32-0.75,0.774-0.744
	c0.435,0.006,0.781,0.352,0.771,0.769C33.851,12.347,33.504,12.672,33.067,12.669z M14.446,24.385c-1.94,0-3.513-1.509-3.513-3.369
	c0-1.853,1.56-3.356,3.489-3.368c0.617-1.45,2.094-2.47,3.817-2.47c2.259,0,4.094,1.754,4.125,3.93c0.002,0,0.004,0,0.007,0
	c1.509,0,2.732,1.182,2.732,2.639c0,1.391-1.113,2.529-2.526,2.631c-0.009,0.004-0.02,0.008-0.032,0.008h-8.06
	c-0.002,0-0.003,0-0.005-0.001C14.469,24.385,14.458,24.385,14.446,24.385z"/>
</svg>
