<svg width="20" height="14" viewBox="0 0 20 14" fill="none" xmlns="http://www.w3.org/2000/svg">
<path fill-rule="evenodd" clip-rule="evenodd" d="M0 2.95177V12C0 13.1046 0.895431 14 2 14H18C19.1046 14 20 13.1046 20 12V2.95174L12.4755 8.88009C11.0234 10.0241 8.97656 10.0241 7.52452 8.88009L0 2.95177ZM19.5619 0.750732C19.5161 0.693526 19.4672 0.638891 19.4155 0.587078C19.0535 0.22439 18.5529 0 18 0H2C1.36806 0 0.80458 0.293085 0.438064 0.75074L8.76225 7.3091C9.48827 7.88111 10.5117 7.88111 11.2377 7.3091L19.5619 0.750732ZM1.99998 1.99999L1.99913 2.00094L1.99802 2.00005C1.99833 1.99998 1.99868 2.00001 1.99901 2.00004C1.99937 2.00007 1.99971 2.00009 1.99998 1.99999Z" fill="#A9B5C1"/>
</svg>
