<svg width="156" height="22" viewBox="0 0 156 22" fill="none" xmlns="http://www.w3.org/2000/svg">
<path d="M149.009 12.0196C149.009 13.7785 150.053 14.6384 151.299 14.6384C152.504 14.6384 153.669 13.7785 153.669 12.0196C153.669 10.2607 152.544 9.40079 151.339 9.40079C150.134 9.40079 149.009 10.2607 149.009 12.0196ZM155.999 12.0196C155.999 14.7948 153.91 16.5928 151.259 16.5928C148.647 16.5928 146.638 14.7948 146.638 12.0196C146.638 9.24444 148.687 7.44643 151.299 7.44643C153.91 7.44643 155.999 9.24444 155.999 12.0196ZM143.866 6.58652C143.063 6.58652 142.46 6.00021 142.46 5.29665C142.46 4.59308 143.063 4.00677 143.866 4.00677C144.67 4.00677 145.273 4.59308 145.273 5.29665C145.273 6.00021 144.67 6.58652 143.866 6.58652ZM142.701 16.4365V7.64187H144.991V16.4755H142.701V16.4365ZM140.853 15.2638C140.853 16.0065 140.251 16.5537 139.447 16.5537C138.603 16.5537 138.041 15.9674 138.041 15.2638C138.041 14.5212 138.644 13.974 139.447 13.974C140.291 13.9349 140.853 14.5212 140.853 15.2638ZM136.555 13.6613C136.072 15.3029 134.546 16.5928 132.296 16.5928C129.644 16.5928 127.756 14.7948 127.756 12.0196C127.756 9.24444 129.604 7.44643 132.296 7.44643C134.907 7.44643 136.755 9.16626 136.755 11.8242C136.755 12.0978 136.755 12.4105 136.675 12.6841H130.046C130.167 13.974 131.091 14.7166 132.216 14.7166C133.18 14.7166 133.742 14.2476 134.023 13.6613H136.555ZM132.256 9.32261C131.171 9.32261 130.287 10.0262 130.126 11.1988H134.425C134.385 10.0262 133.461 9.32261 132.256 9.32261ZM123.819 12.0196C123.819 10.3389 122.654 9.43987 121.408 9.43987C120.163 9.43987 119.038 10.3389 119.038 12.0196C119.038 13.7004 120.203 14.6384 121.408 14.6384C122.694 14.6384 123.819 13.7004 123.819 12.0196ZM116.708 12.0196C116.708 9.28352 118.556 7.48552 120.846 7.48552C122.051 7.48552 123.176 8.03274 123.819 8.85357V4.67125H126.149V16.4755H123.819V15.1857C123.297 16.0065 122.252 16.6319 120.846 16.6319C118.516 16.5928 116.708 14.7557 116.708 12.0196ZM112.731 12.0196C112.731 10.3389 111.566 9.43987 110.32 9.43987C109.075 9.43987 107.95 10.3389 107.95 12.0196C107.95 13.7004 109.115 14.6384 110.32 14.6384C111.606 14.6384 112.731 13.7004 112.731 12.0196ZM105.62 12.0196C105.62 9.28352 107.468 7.48552 109.758 7.48552C111.204 7.48552 112.208 8.15 112.771 8.89265V7.64187H115.061V16.4755H112.771V15.1857C112.249 15.9674 111.204 16.6319 109.758 16.6319C107.428 16.5928 105.62 14.7557 105.62 12.0196ZM101.883 12.0587V16.4365H99.5934V7.64187H101.883V9.00992C102.446 8.11091 103.41 7.52461 104.655 7.52461V9.86983H104.053C102.687 9.83074 101.883 10.3389 101.883 12.0587ZM95.0536 12.0196C95.0536 10.3389 93.8885 9.43987 92.6431 9.43987C91.3977 9.43987 90.2728 10.3389 90.2728 12.0196C90.2728 13.7004 91.4378 14.6384 92.6431 14.6384C93.8885 14.6384 95.0536 13.7004 95.0536 12.0196ZM87.9024 12.0196C87.9024 9.28352 89.7505 7.48552 92.0405 7.48552C93.4466 7.48552 94.4911 8.11091 95.0536 8.89265V7.64187H97.3436V16.5146C97.3436 18.8989 95.8571 20.8142 92.844 20.8142C90.2728 20.8142 88.505 19.5634 88.264 17.5309H90.554C90.795 18.3126 91.6387 18.8598 92.7636 18.8598C94.009 18.8598 95.0134 18.1563 95.0134 16.5146V15.1466C94.4911 15.9283 93.4466 16.5928 92.0003 16.5928C89.7505 16.5928 87.9024 14.7557 87.9024 12.0196ZM85.1303 6.58652C84.3268 6.58652 83.7242 6.00021 83.7242 5.29665C83.7242 4.59308 84.3268 4.00677 85.1303 4.00677C85.9338 4.00677 86.5365 4.59308 86.5365 5.29665C86.5365 6.00021 85.9338 6.58652 85.1303 6.58652ZM83.9653 16.4365V7.64187H86.2552V16.4755H83.9653V16.4365ZM79.4255 12.0196C79.4255 10.3389 78.2604 9.43987 77.0149 9.43987C75.7695 9.43987 74.6446 10.3389 74.6446 12.0196C74.6446 13.7004 75.8097 14.6384 77.0149 14.6384C78.2604 14.6384 79.4255 13.7004 79.4255 12.0196ZM72.2743 12.0196C72.2743 9.28352 74.1223 7.48552 76.4123 7.48552C77.6176 7.48552 78.7425 8.03274 79.3853 8.85357V4.67125H81.7154V16.4755H79.3853V15.1857C78.863 16.0065 77.8185 16.6319 76.4123 16.6319C74.1223 16.5928 72.2743 14.7557 72.2743 12.0196ZM68.5782 12.0587V16.4365H66.2882V7.64187H68.5782V9.00992C69.1406 8.11091 70.1048 7.52461 71.3503 7.52461V9.86983H70.7476C69.3817 9.83074 68.5782 10.3389 68.5782 12.0587ZM61.7082 12.0196C61.7082 10.3389 60.5431 9.43987 59.2977 9.43987C58.0523 9.43987 56.9274 10.3389 56.9274 12.0196C56.9274 13.7004 58.0925 14.6384 59.2977 14.6384C60.5833 14.6384 61.7082 13.7004 61.7082 12.0196ZM54.5972 12.0196C54.5972 9.28352 56.4453 7.48552 58.7353 7.48552C60.1816 7.48552 61.1859 8.15 61.7484 8.89265V7.64187H64.0384V16.4755H61.7484V15.1857C61.2261 15.9674 60.1816 16.6319 58.7353 16.6319C56.4051 16.5928 54.5972 14.7557 54.5972 12.0196ZM49.2138 13.7004V9.43987H48.129V7.60278H49.2138V5.41391H51.5037V7.60278H53.5527V9.43987H51.5037V13.7004C51.5037 14.2867 51.7448 14.5603 52.4679 14.5603H53.5125V16.4365H52.0662C50.3788 16.4365 49.2138 15.7329 49.2138 13.7004Z" fill="black"/>
<path d="M36.3987 12.8205V8.7555V8.48189V4.41684L30.2921 1.95435V15.283L36.3987 12.8205Z" fill="#2582FF"/>
<path d="M28.8056 20.1298V1.36805L28.3235 1.17261C26.5156 0.429957 24.6274 0.039087 22.699 0V18.2536C22.699 18.6445 22.94 19.0354 23.3016 19.1917L27.2387 21.0679C27.3994 21.1461 27.5601 21.1852 27.7208 21.1852C28.3235 21.1852 28.8056 20.7161 28.8056 20.1298Z" fill="#2582FF"/>
<path d="M15.7487 1.36805L15.146 1.64166H15.1059V18.2927C15.1059 18.6836 15.3469 19.0745 15.7085 19.2308L19.6858 21.0679C19.8465 21.1461 20.0072 21.1852 20.1679 21.1852C20.7705 21.1852 21.2526 20.7161 21.2526 20.1298V0.039087C19.3644 0.156348 17.5164 0.586306 15.7487 1.36805Z" fill="#2582FF"/>
<path d="M13.6997 20.1298V2.30614L7.55293 5.00314V18.2927C7.55293 18.6836 7.79398 19.0745 8.15555 19.2308L12.1329 21.0679C12.2936 21.1461 12.4543 21.1852 12.615 21.1852C13.2176 21.1852 13.6997 20.7161 13.6997 20.1298Z" fill="#2582FF"/>
<path d="M6.10662 20.0907V5.62853L0 8.36463V18.2536C0 18.6445 0.241051 19.0354 0.562452 19.1917L4.53979 21.0288C4.70049 21.107 4.86119 21.1461 5.02189 21.1461C5.62452 21.1461 6.10662 20.677 6.10662 20.0907Z" fill="#2582FF"/>
</svg>
